<?xml version="1.0" standalone="yes"?>
<svg xmlns="http://www.w3.org/2000/svg" width="1000" height="1000">
<path style="fill:#060403; stroke:none;" d="M0 0L0 1000L1000 1000L1000 0L0 0z"/>
<path style="fill:#a4552a; stroke:none;" d="M150 110L150 827L182 827L182 869L476 869L476 940L525 940L525 939C499.572 935.189 482.596 907.417 486.439 883C488.043 872.812 493.568 865.91 498 857L476 858L476 851L513 847C513.037 842.909 513.262 836.091 518.961 836.006C523.561 835.938 526.458 847.629 532 850.026C537.486 852.399 542.554 849.738 548 849.129C553.976 848.46 560.01 849.983 566 850L566 869L833 869C833 854.92 824.112 849.883 815.17 840C805.455 829.264 797.386 817.761 789 806C775.814 787.507 762.664 762.155 744 748.789C716.373 729.003 676.897 720.369 644 714.92C607.414 708.86 569.084 701.923 532 701.015C502.567 700.293 474.251 705 445 705C444.761 694.3 444.727 676.485 453.394 668.51C462.415 660.209 482.383 658.323 494 656C511.349 652.531 529.351 650.812 547 650.039C572.199 648.936 596.626 650.183 614.561 628.999C617.886 625.072 624.098 618.54 624.009 613C623.912 606.905 614.278 599.178 611.066 594C604.495 583.41 600.567 570.484 600.039 558C599.322 541.02 605.307 521.291 612.309 506C615.914 498.126 621.981 490.286 624.362 482C627.627 470.639 626 454.842 626 443C626 428.235 628 413.694 628 399C649.945 413.501 675.329 436.501 702 441.532C715.448 444.07 731.031 440.29 744 436.884C751.882 434.814 764.363 434.183 770.482 428.442C786.732 413.197 789.129 381.857 810 371C821.119 397.707 833.924 423.846 837.711 453C840.92 477.707 836.745 503.768 832.464 528C824.152 575.037 805.201 620.47 777.079 659.17C762.832 678.774 745.923 705.231 724 717L724 719L744.961 722.147L753.039 725.656L769 716.059L845 716L845 629L845.184 585L853 554L854 554L854 814L833 814L833 827L864 827L864 110L150 110z"/>
<path style="fill:#f4be6c; stroke:none;" d="M160 120L160 227L160 255C160 257.848 159.065 263.009 161.024 265.377C164.871 270.027 174.08 251.56 176.3 249.005C178.648 246.302 182.759 244.023 184.258 240.741C186.226 236.432 185 229.642 185 225L185 189L252 189C261.277 189 274.154 191.31 283 188.436C296.873 183.929 311.427 168.59 324 160.721C352.251 143.038 388.788 125.887 422 121L398 120L345 120L160 120M592 120L592 121C624.895 125.858 662.236 142.954 690 160.746C698.723 166.336 707.639 171.885 716 178.014C720.695 181.455 725.34 186.625 731 188.437C741.241 191.715 756.26 189 767 189L845 189L845 299L845.326 353L853 380L854 380L854 120L592 120M319 193L319 194C355.388 189.401 396.979 187.264 433 195.899C453.99 200.931 473.378 210.664 492 221.281C510.191 231.652 539.113 246.469 537.96 270C536.661 296.507 506.887 300.291 487 296.54C456.028 290.699 430.536 268.296 401 258.356C378.293 250.714 350.096 253.982 327 258.6C310.626 261.875 294.947 266.721 280 274.248C276.189 276.167 266.434 280.039 266.167 285.09C265.944 289.304 271.786 295.542 273.95 299C280.169 308.936 286.671 335.663 299.996 336.666C306.446 337.151 309.262 330.607 312.333 326C318.932 316.102 329.369 290.319 344 292.268C362.168 294.689 362.162 326.403 370.969 337.775C375.496 343.621 387.463 347.305 394 350.78C405.098 356.68 415.74 365.164 423.621 375C441.545 397.37 443.331 433.454 468 450.254C483.102 460.539 503.883 464.167 522 464.961C530.855 465.348 540.286 463.821 549 465.669C563.168 468.674 576.935 475.596 580.471 491C587.152 520.107 577.043 544.046 566.198 570C558.994 587.238 554.232 601.002 537 611.139C510.525 626.714 469.947 628.066 457 659C474.521 656.412 491.153 649.083 509 647.166C534.128 644.466 561.444 646.194 586 640.346C597.176 637.684 613.237 626.62 616.712 615C618.25 609.857 609.681 603.039 607.004 599C599.828 588.174 595.958 575.843 594.289 563C591.431 540.994 600.534 516.677 609.436 497C612.03 491.267 616.54 486.039 618.351 480C621.886 468.215 620 450.37 620 438C620 427.136 621.172 416.784 621.911 406C622.185 401.993 620.793 395.521 624.434 392.647C628.262 389.624 633.177 394.486 636 396.743C646.016 404.749 657.007 411.618 668 418.2C678.693 424.603 692.589 433.495 705 435.671C718.088 437.966 733.453 433.038 746 429.735C752.026 428.148 759.344 427.662 764.787 424.442C769.231 421.813 771.493 415.287 774.011 411C780.344 400.217 786.329 389.366 793.33 379C796.782 373.89 802.003 365.121 808.996 364.647C813.738 364.326 815.978 369.494 817.752 373C822.87 383.113 828.374 393.92 831 405C835.172 394.963 825.03 371.97 821.47 362C807.062 321.649 787.381 284.568 759.5 251.83C651.752 125.312 456.355 97.1705 319 193z"/>
<path style="fill:#626366; stroke:none;" d="M341 197L341 198L345 198L341 197z"/>
<path style="fill:#f4be6c; stroke:none;" d="M345 197L345 198L349 198L345 197z"/>
<path style="fill:#e9cfca; stroke:none;" d="M197 348C222.251 336.433 217.507 299.863 238.015 283.39C246.257 276.77 254.363 282.304 262 278.131C301.767 256.401 351.605 237.903 398 250.489C421.068 256.747 443.679 272.078 465 282.73C483.359 291.902 518.22 300.667 529.597 277C539.636 256.118 514.353 242.883 500 233.333C478.582 219.082 452.532 205.954 427 201.464C407.339 198.006 386.864 197.909 367 197.039C353.273 196.438 339.596 198.218 326 199.845C319.843 200.582 311.617 200.408 306 203.174C293.098 209.529 280.845 223.564 271 233.831C238.88 267.327 214.813 305.159 197 348z"/>
<path style="fill:#f4be6c; stroke:none;" d="M371 197L371 198L383 198L371 197z"/>
<path style="fill:#626366; stroke:none;" d="M383 197L383 198L394 198L383 197M332 198L332 199L335 199L332 198z"/>
<path style="fill:#f4be6c; stroke:none;" d="M335 198L335 199L338 199L335 198M398 198L398 199L401 199L398 198z"/>
<path style="fill:#626366; stroke:none;" d="M401 198L401 199L406 199L401 198M324.667 199.333L325.333 199.667L324.667 199.333z"/>
<path style="fill:#f4be6c; stroke:none;" d="M326 199L326 200L329 200L326 199M409.667 199.333L410.333 199.667L409.667 199.333z"/>
<path style="fill:#626366; stroke:none;" d="M411 199L411 200L414 200L411 199M317 200L318 201L317 200z"/>
<path style="fill:#f4be6c; stroke:none;" d="M318 200L318 201L321 201L318 200M417.667 200.333L418.333 200.667L417.667 200.333z"/>
<path style="fill:#626366; stroke:none;" d="M419 200L419 201L422 201L419 200z"/>
<path style="fill:#f4be6c; stroke:none;" d="M308 201L308 202L314 202L308 201M427.667 201.333L428.333 201.667L427.667 201.333M306 202L307 203L306 202M431.667 202.333L432.333 202.667L431.667 202.333M436 203L437 204L436 203M439 204L440 205L439 204M442 205L443 206L442 205z"/>
<path style="fill:#626366; stroke:none;" d="M301 206L302 207L301 206z"/>
<path style="fill:#f4be6c; stroke:none;" d="M445 206L446 207L445 206M300 207L301 208L300 207M447.667 207.333L448.333 207.667L447.667 207.333z"/>
<path style="fill:#626366; stroke:none;" d="M298 208L299 209L298 208z"/>
<path style="fill:#f4be6c; stroke:none;" d="M450.667 208.333L451.333 208.667L450.667 208.333M297 209L298 210L297 209M453.667 209.333L454.333 209.667L453.667 209.333M456.667 210.333L457.333 210.667L456.667 210.333z"/>
<path style="fill:#626366; stroke:none;" d="M294 211L295 212L294 211z"/>
<path style="fill:#f4be6c; stroke:none;" d="M459 211L460 212L459 211M461 212L462 213L461 212M463.667 213.333L464.333 213.667L463.667 213.333M465.667 214.333L466.333 214.667L465.667 214.333M467.667 215.333L468.333 215.667L467.667 215.333z"/>
<path style="fill:#a4552a; stroke:none;" d="M651 254C642.534 248.775 635.595 243.345 625 245.228C608.774 248.111 611.141 269.673 617.198 280C633.372 307.571 678.741 305.871 689 338C697.25 335.557 700.626 319.591 702.856 312C710.266 286.771 707.161 240.121 684.999 222.38C675.25 214.575 654.433 210.52 648.483 225.001C644.731 234.132 648.156 245.107 651 254z"/>
<path style="fill:#626366; stroke:none;" d="M289 216L290 217L289 216z"/>
<path style="fill:#f4be6c; stroke:none;" d="M469.667 216.333L470.333 216.667L469.667 216.333M471.667 217.333L472.333 217.667L471.667 217.333z"/>
<path style="fill:#626366; stroke:none;" d="M287 218L288 219L287 218z"/>
<path style="fill:#f4be6c; stroke:none;" d="M473 218L474 219L473 218M475 219L476 220L475 219z"/>
<path style="fill:#626366; stroke:none;" d="M285 220L286 221L285 220z"/>
<path style="fill:#f4be6c; stroke:none;" d="M477 220L478 221L477 220M479 221L480 222L479 221M282 222L283 223L282 222M481 222L482 223L481 222z"/>
<path style="fill:#626366; stroke:none;" d="M281 223L282 224L281 223z"/>
<path style="fill:#f4be6c; stroke:none;" d="M483 223L484 224L483 223M485 224L486 225L485 224z"/>
<path style="fill:#626366; stroke:none;" d="M279 225L280 226L279 225z"/>
<path style="fill:#f4be6c; stroke:none;" d="M486 225L487 226L486 225M278 226L279 227L278 226M488 226L489 227L488 226M490 227L491 228L490 227z"/>
<path style="fill:#626366; stroke:none;" d="M275 228L276 229L275 228z"/>
<path style="fill:#f4be6c; stroke:none;" d="M492 228L493 229L492 228M495 230L496 231L495 230M273 231L274 232L273 231z"/>
<path style="fill:#626366; stroke:none;" d="M272 232L273 233L272 232z"/>
<path style="fill:#f4be6c; stroke:none;" d="M498 232L499 233L498 232z"/>
<path style="fill:#626366; stroke:none;" d="M270 234L271 235L270 234z"/>
<path style="fill:#f4be6c; stroke:none;" d="M501 234L502 235L501 234M269 235L270 236L269 235M504 236L505 237L504 236z"/>
<path style="fill:#626366; stroke:none;" d="M267 237L268 238L267 237z"/>
<path style="fill:#f4be6c; stroke:none;" d="M507 238L508 239L507 238z"/>
<path style="fill:#626366; stroke:none;" d="M265 239L266 240L265 239z"/>
<path style="fill:#f4be6c; stroke:none;" d="M510 240L511 241L510 240z"/>
<path style="fill:#e9cfca; stroke:none;" d="M184 241C178.431 246.439 167.065 266.606 160 266L160 379L161 379L184.387 313L185 271L184 241z"/>
<path style="fill:#626366; stroke:none;" d="M263 241L264 242L263 241z"/>
<path style="fill:#f4be6c; stroke:none;" d="M511 241L512 242L511 241M262 242L263 243L262 242M261 243L262 244L261 243M514 243L515 244L514 243z"/>
<path style="fill:#626366; stroke:none;" d="M260 244L261 245L260 244z"/>
<path style="fill:#f4be6c; stroke:none;" d="M515 244L516 245L515 244M517 245L518 246L517 245M518 246L519 247L518 246M353 248L353 249L356 249L353 248z"/>
<path style="fill:#626366; stroke:none;" d="M356 248L356 249L362 249L356 248M386.667 248.333L387.333 248.667L386.667 248.333z"/>
<path style="fill:#f4be6c; stroke:none;" d="M388.667 248.333L389.333 248.667L388.667 248.333M340 249L340 250L343 250L340 249z"/>
<path style="fill:#626366; stroke:none;" d="M343 249L344 250L343 249M392 249L393 250L392 249z"/>
<path style="fill:#f4be6c; stroke:none;" d="M393 249L394 250L393 249M522 249L523 250L522 249M255 250L256 251L255 250M333 250L333 251L336 251L333 250z"/>
<path style="fill:#626366; stroke:none;" d="M397 250L398 251L397 250z"/>
<path style="fill:#f4be6c; stroke:none;" d="M398 250L399 251L398 250M523 250L524 251L523 250z"/>
<path style="fill:#626366; stroke:none;" d="M254 251L255 252L254 251z"/>
<path style="fill:#f4be6c; stroke:none;" d="M328.667 251.333L329.333 251.667L328.667 251.333M401 251L402 252L401 251M524 251L525 252L524 251M322 252L322 253L325 253L322 252z"/>
<path style="fill:#626366; stroke:none;" d="M403 252L404 253L403 252z"/>
<path style="fill:#f4be6c; stroke:none;" d="M525 252L526 253L525 252M318.667 253.333L319.333 253.667L318.667 253.333z"/>
<path style="fill:#626366; stroke:none;" d="M406 253L407 254L406 253z"/>
<path style="fill:#f4be6c; stroke:none;" d="M526 253L527 254L526 253z"/>
<path style="fill:#626366; stroke:none;" d="M251 254L252 255L251 254z"/>
<path style="fill:#f4be6c; stroke:none;" d="M314.667 254.333L315.333 254.667L314.667 254.333M409 254L410 255L409 254M527 254L528 255L527 254M651 254L652 255L651 254M310 255L311 256L310 255z"/>
<path style="fill:#626366; stroke:none;" d="M311 255L312 256L311 255z"/>
<path style="fill:#f4be6c; stroke:none;" d="M528 255L529 256L528 255M306.667 256.333L307.333 256.667L306.667 256.333M412 256L413 257L412 256M529 256L530 257L529 256M303 257L304 258L303 257z"/>
<path style="fill:#626366; stroke:none;" d="M304 257L305 258L304 257z"/>
<path style="fill:#f4be6c; stroke:none;" d="M414 257L415 258L414 257z"/>
<path style="fill:#626366; stroke:none;" d="M248 258L249 259L248 258z"/>
<path style="fill:#f4be6c; stroke:none;" d="M300 258L301 259L300 258z"/>
<path style="fill:#626366; stroke:none;" d="M301 258L302 259L301 258z"/>
<path style="fill:#f4be6c; stroke:none;" d="M416 258L417 259L416 258M530 258L531 259L530 258M298 259L299 260L298 259M418 259L419 260L418 259M247 260L248 261L247 260M295 260L296 261L295 260M420 260L421 261L420 260M531 260L531 263L532 263L531 260M292 261L293 262L292 261z"/>
<path style="fill:#626366; stroke:none;" d="M293 261L294 262L293 261z"/>
<path style="fill:#f4be6c; stroke:none;" d="M290 262L291 263L290 262M424 262L425 263L424 262z"/>
<path style="fill:#626366; stroke:none;" d="M245 263L246 264L245 263z"/>
<path style="fill:#f4be6c; stroke:none;" d="M287 263L288 264L287 263z"/>
<path style="fill:#626366; stroke:none;" d="M288 263L289 264L288 263z"/>
<path style="fill:#f4be6c; stroke:none;" d="M426 263L427 264L426 263z"/>
<path style="fill:#626366; stroke:none;" d="M285 264L286 265L285 264z"/>
<path style="fill:#f4be6c; stroke:none;" d="M428 264L429 265L428 264z"/>
<path style="fill:#626366; stroke:none;" d="M243 265L244 266L243 265z"/>
<path style="fill:#f4be6c; stroke:none;" d="M282 265L283 266L282 265z"/>
<path style="fill:#626366; stroke:none;" d="M283 265L284 266L283 265z"/>
<path style="fill:#f4be6c; stroke:none;" d="M430 265L431 266L430 265M280 266L281 267L280 266M432 266L433 267L432 266M241 267L242 268L241 267M278 267L279 268L278 267M434 267L435 268L434 267z"/>
<path style="fill:#626366; stroke:none;" d="M277 268L278 269L277 268z"/>
<path style="fill:#f4be6c; stroke:none;" d="M436 268L437 269L436 268z"/>
<path style="fill:#626366; stroke:none;" d="M275 269L276 270L275 269z"/>
<path style="fill:#f4be6c; stroke:none;" d="M438 269L439 270L438 269z"/>
<path style="fill:#626366; stroke:none;" d="M273 270L274 271L273 270z"/>
<path style="fill:#f4be6c; stroke:none;" d="M441 270L442 271L441 270M161 271L162 272L161 271z"/>
<path style="fill:#626366; stroke:none;" d="M239 271L240 272L239 271M271 271L272 272L271 271z"/>
<path style="fill:#f4be6c; stroke:none;" d="M443 271L444 272L443 271M531.333 271.667L531.667 272.333L531.333 271.667M269 272L270 273L269 272M445 272L446 273L445 272z"/>
<path style="fill:#626366; stroke:none;" d="M237 273L238 274L237 273M268 273L269 274L268 273z"/>
<path style="fill:#f4be6c; stroke:none;" d="M447 273L448 274L447 273M236 275L237 276L236 275M265 275L266 276L265 275M530 275L531 276L530 275z"/>
<path style="fill:#626366; stroke:none;" d="M235 276L236 277L235 276M264 276L265 277L264 276z"/>
<path style="fill:#f4be6c; stroke:none;" d="M529 277L530 278L529 277M248 278L248 279L254 279L248 278M261 278L262 279L261 278M457 278L458 279L457 278M244 279L245 280L244 279z"/>
<path style="fill:#626366; stroke:none;" d="M245 279L246 280L245 279M255 279L256 280L255 279z"/>
<path style="fill:#f4be6c; stroke:none;" d="M256 279L257 280L256 279M260 279L261 280L260 279M459 279L460 280L459 279M528 279L529 280L528 279z"/>
<path style="fill:#626366; stroke:none;" d="M242 280L243 281L242 280M258.667 280.333L259.333 280.667L258.667 280.333z"/>
<path style="fill:#f4be6c; stroke:none;" d="M527 280L528 281L527 280z"/>
<path style="fill:#626366; stroke:none;" d="M232 281L233 282L232 281M240 281L241 282L240 281z"/>
<path style="fill:#f4be6c; stroke:none;" d="M238 282L239 283L238 282z"/>
<path style="fill:#626366; stroke:none;" d="M230 283L231 284L230 283M229 284L230 285L229 284z"/>
<path style="fill:#f4be6c; stroke:none;" d="M524 284L525 285L524 284M270 702L271 702C274.377 689.629 285.147 673.129 282.456 660C278.673 641.539 262.637 627.961 253.865 612C240.204 587.142 240.079 550.458 252.809 525C263.827 502.963 287.144 489.754 310 482.861C320.148 479.801 340.758 479.485 347.076 469.895C359.754 450.654 352.809 421.313 344.876 402C343.008 397.452 342.357 389.354 349.019 388.288C353.77 387.527 358.735 393.023 362 395.754C373.826 405.647 379.683 419.819 390.171 430.961C409.239 451.219 441.029 457.926 468 458C461.797 451.213 453.856 447.206 448.93 439C436.641 418.531 432.181 393.325 416.245 375.039C407.639 365.164 396.385 358.466 385 352.309C379.471 349.319 371.722 347.45 367.39 342.786C359.83 334.646 357.944 320.032 353.576 310C351.672 305.629 349.286 299.396 343.996 298.361C336.382 296.871 332.409 305.82 329.192 311C321.608 323.213 311.293 347.214 294.001 341.467C280.443 336.961 273.723 308.287 266.165 297C262.444 291.443 257.425 284.955 250 285.138C241.745 285.342 237.792 292.574 234.309 299C227.303 311.923 224.352 331.849 214.582 342.675C207.916 350.061 197.313 354.268 192.008 363.004C186.265 372.462 184.477 387.246 182.537 398C179.428 415.236 176 431.372 176 449C176 468.938 174.955 489.176 177.173 509C182.002 552.165 197.245 595.297 218.569 633C233.029 658.567 253.291 678.35 270 702M471 285L472 286L471 285M523 285L524 286L523 285z"/>
<path style="fill:#626366; stroke:none;" d="M234 286L235 287L234 286z"/>
<path style="fill:#f4be6c; stroke:none;" d="M473 286L474 287L473 286M233 287L234 288L233 287M476 287L477 288L476 287M520 287L521 288L520 287M227 288L228 289L227 288M479.667 288.333L480.333 288.667L479.667 288.333M518 288L519 289L518 288z"/>
<path style="fill:#626366; stroke:none;" d="M226 289L227 290L226 289M232 289L233 290L232 289z"/>
<path style="fill:#f4be6c; stroke:none;" d="M483.667 289.333L484.333 289.667L483.667 289.333M516 289L517 290L516 289M231 290L232 291L231 290M487 290L487 291L490 291L487 290M514 290L515 291L514 290M493 291L493 292L496 292L493 291M511.667 291.333L512.333 291.667L511.667 291.333M230 292L231 293L230 292M500 292L500 293L509 293L500 292M224 293L225 294L224 293z"/>
<path style="fill:#626366; stroke:none;" d="M229 294L230 295L229 294M222 296L223 297L222 296M228 296L229 297L228 296z"/>
<path style="fill:#f4be6c; stroke:none;" d="M227 297L228 298L227 297z"/>
<path style="fill:#626366; stroke:none;" d="M220 299L221 300L220 299z"/>
<path style="fill:#f4be6c; stroke:none;" d="M226 299L227 300L226 299M225 301L226 302L225 301z"/>
<path style="fill:#626366; stroke:none;" d="M218 303L219 304L218 303z"/>
<path style="fill:#f4be6c; stroke:none;" d="M224 303L225 304L224 303z"/>
<path style="fill:#626366; stroke:none;" d="M224 304L225 305L224 304z"/>
<path style="fill:#f4be6c; stroke:none;" d="M217 305L218 306L217 305z"/>
<path style="fill:#626366; stroke:none;" d="M223 306L224 307L223 306z"/>
<path style="fill:#e9cfca; stroke:none;" d="M236 341L280 337C277.517 328.013 265.137 308.532 255 307.671C244.066 306.743 233.53 332.384 236 341z"/>
<path style="fill:#626366; stroke:none;" d="M215 308L216 309L215 308z"/>
<path style="fill:#f4be6c; stroke:none;" d="M222 308L223 309L222 308z"/>
<path style="fill:#626366; stroke:none;" d="M222 309L223 310L222 309M221 311L222 312L221 311M213 312L214 313L213 312z"/>
<path style="fill:#f4be6c; stroke:none;" d="M220 313L221 314L220 313M212 315L213 316L212 315M219 315L220 316L219 315z"/>
<path style="fill:#626366; stroke:none;" d="M211 316L212 317L211 316M219 316L220 317L219 316z"/>
<path style="fill:#e9cfca; stroke:none;" d="M327 339L358 337C356.568 330.815 353.814 318.936 346.96 316.644C338.135 313.692 325.908 331.705 327 339z"/>
<path style="fill:#626366; stroke:none;" d="M218 318L219 319L218 318z"/>
<path style="fill:#f4be6c; stroke:none;" d="M217 320L218 321L217 320z"/>
<path style="fill:#626366; stroke:none;" d="M217 321L218 322L217 321z"/>
<path style="fill:#f4be6c; stroke:none;" d="M208 322L209 323L208 322z"/>
<path style="fill:#626366; stroke:none;" d="M216 323L217 324L216 323z"/>
<path style="fill:#f4be6c; stroke:none;" d="M215 325L216 326L215 325z"/>
<path style="fill:#626366; stroke:none;" d="M206 326L207 327L206 326M215 326L216 327L215 326M214 328L215 329L214 328z"/>
<path style="fill:#f4be6c; stroke:none;" d="M205 329L206 330L205 329z"/>
<path style="fill:#626366; stroke:none;" d="M204 330L205 331L204 330z"/>
<path style="fill:#f4be6c; stroke:none;" d="M213 330L214 331L213 330z"/>
<path style="fill:#626366; stroke:none;" d="M213 331L214 332L213 331z"/>
<path style="fill:#f4be6c; stroke:none;" d="M203 333L204 334L203 333M212 333L213 334L212 333M211 335L212 336L211 335z"/>
<path style="fill:#626366; stroke:none;" d="M211 336L212 337L211 336z"/>
<path style="fill:#f4be6c; stroke:none;" d="M201 337L202 338L201 337M210 337L211 338L210 337M209 338L210 339L209 338M208 339L209 340L208 339M207 340L208 341L207 340z"/>
<path style="fill:#626366; stroke:none;" d="M206 341L207 342L206 341M199 342L200 343L199 342M205 342L206 343L205 342z"/>
<path style="fill:#f4be6c; stroke:none;" d="M203 343L204 344L203 343M202 344L203 345L202 344z"/>
<path style="fill:#626366; stroke:none;" d="M201 345L202 346L201 345M197 346L198 347L197 346M200 346L201 347L200 346z"/>
<path style="fill:#f4be6c; stroke:none;" d="M197 348L198 349L197 348M808 371L809 372L808 371z"/>
<path style="fill:#e9cfca; stroke:none;" d="M809 371C790.004 385.596 787.141 413.327 769.907 428.772C763.415 434.59 752.12 434.955 744 437.151C732.347 440.303 718.156 444.29 706 442.711C677.81 439.047 652.648 413.604 629 400C628.698 414.632 626.374 429.332 626.015 444C625.736 455.37 628.113 468.921 625.466 480C623.588 487.858 617.245 495.66 613.781 503C606.392 518.653 599.222 540.428 600.21 558C600.892 570.144 604.659 583.673 611.066 594C614.42 599.408 622.896 605.938 624.183 612C625.132 616.473 620.113 621.856 617.535 625C587.877 661.182 537.214 647.891 496 656.001C484.056 658.351 462.721 660.1 453.418 668.56C445.865 675.429 445.006 692.557 445 702C503.818 700.786 563.128 692.317 622 699.286C646.854 702.228 671.422 706.181 696 710.934C703.899 712.461 716.085 719.368 724 717.091C736.645 713.453 749.398 694.826 757.375 685C777.538 660.165 794.36 635.111 807.886 606C812.641 595.767 818.336 585.307 820 574C811.397 573.315 799.909 571.267 793 566L823 569L827 551L798 552C805.523 544.229 822.172 551.031 829.143 543.411C832.837 539.373 831.796 531.055 833 526C820.397 529.55 804.123 536.82 791 536L791 534C800.847 531.312 810.111 526.862 820 524.152C823.844 523.098 830.334 522.637 833.066 519.437C839.316 512.114 838 491.21 838 482C838 453.436 833.061 427.852 823.05 401C819.384 391.166 815.756 379.154 809 371z"/>
<path style="fill:#626366; stroke:none;" d="M806 372L807 373L806 372z"/>
<path style="fill:#f4be6c; stroke:none;" d="M810 372L811 373L810 372M805 373L806 374L805 373M804 374L805 375L804 374M811 374L812 375L811 374z"/>
<path style="fill:#626366; stroke:none;" d="M803 375L804 376L803 375M802 376L803 377L802 376z"/>
<path style="fill:#f4be6c; stroke:none;" d="M812 376L813 377L812 376M801 378L802 379L801 378M813 378L814 379L813 378z"/>
<path style="fill:#626366; stroke:none;" d="M800 379L801 380L800 379z"/>
<path style="fill:#f4be6c; stroke:none;" d="M814 380L815 381L814 380M799 381L800 382L799 381z"/>
<path style="fill:#626366; stroke:none;" d="M798 382L799 383L798 382z"/>
<path style="fill:#f4be6c; stroke:none;" d="M815 382L816 383L815 382z"/>
<path style="fill:#626366; stroke:none;" d="M816 384L817 385L816 384M796 385L797 386L796 385M817 386L818 387L817 386z"/>
<path style="fill:#e9cfca; stroke:none;" d="M558 571C529.203 575.237 500.887 584.096 472 588.576C459.051 590.584 440.047 588.293 428.213 593.599C421.208 596.74 415.374 612.125 409.91 618C396.532 632.387 379.577 647.501 359 648.911C340.443 650.181 320.643 635.15 325.924 615C328.518 605.104 335.168 596.836 338 587C327.274 585.422 316.501 579.949 308.043 573.24C304.727 570.609 299.825 564.594 304.438 560.757C308.445 557.422 315.796 561.468 320 562.706C333.737 566.751 347.589 571.161 362 571.964C415.723 574.96 466.278 572.303 519 560.424C531.77 557.546 544.487 553.823 557 549.975C561.103 548.714 568.083 548.001 570.911 544.49C577.095 536.813 576.003 519.162 575 510C553.665 523.107 515.823 497.957 522 472C510.673 468.165 497.726 467.977 486 465.335C479.345 463.835 473.655 459.303 467 458.209C439.73 453.725 414.431 452.662 393.015 432.83C381.133 421.828 375.402 406.133 363 395.754C359.3 392.657 353.489 386.34 348.055 387.998C338.998 390.762 344.875 402.695 347.128 408C354.179 424.604 358.35 454.284 346.44 469.895C340.748 477.355 327.474 478.239 319 480.235C303.264 483.94 288.335 489.757 275 499.039C241.593 522.292 235.596 574.819 252.32 610C260.588 627.392 276.078 640.24 281.88 659C286.319 673.353 268.83 687.754 271.813 701C272.974 706.153 281.123 712.069 285.09 715.32C293.177 721.95 304.448 718.309 314 717C337.61 713.765 361.305 710.704 385 708.166C392.393 707.374 409.586 708.778 415.397 703.987C417.987 701.852 417.669 696.052 418.134 693C419.013 687.235 421.236 681.988 424.207 677C432.74 662.672 444.526 654.885 456.996 644.536C461.608 640.708 464.795 635.463 470.001 632.353C498.465 615.346 556.065 615.392 558 571z"/>
<path style="fill:#f4be6c; stroke:none;" d="M817 387L818 388L817 387z"/>
<path style="fill:#626366; stroke:none;" d="M794 388L795 389L794 388z"/>
<path style="fill:#f4be6c; stroke:none;" d="M818 389L819 390L818 389M793 390L794 391L793 390z"/>
<path style="fill:#626366; stroke:none;" d="M792 391L793 392L792 391M819 391L820 392L819 391z"/>
<path style="fill:#f4be6c; stroke:none;" d="M791 393L792 394L791 393z"/>
<path style="fill:#626366; stroke:none;" d="M820 393L821 394L820 393M790 394L791 395L790 394z"/>
<path style="fill:#f4be6c; stroke:none;" d="M820 394L821 395L820 394M790 395L791 396L790 395z"/>
<path style="fill:#626366; stroke:none;" d="M789 396L790 397L789 396M821 396L822 397L821 396z"/>
<path style="fill:#a4552a; stroke:none;" d="M407.667 398.333L408.333 398.667L407.667 398.333z"/>
<path style="fill:#626366; stroke:none;" d="M409.004 398.677C395.091 401.32 403.097 435.981 416.995 432.551C429.819 429.386 421.259 396.349 409.004 398.677z"/>
<path style="fill:#a4552a; stroke:none;" d="M412 398L413 399L412 398z"/>
<path style="fill:#626366; stroke:none;" d="M788 398L789 399L788 398z"/>
<path style="fill:#a4552a; stroke:none;" d="M405 399L406 400L405 399M414 399L415 400L414 399z"/>
<path style="fill:#f4be6c; stroke:none;" d="M628 399L628 407L629 407L630 399L628 399M822 399L823 400L822 399z"/>
<path style="fill:#a4552a; stroke:none;" d="M404 400L405 401L404 400z"/>
<path style="fill:#f4be6c; stroke:none;" d="M630 400L631 401L630 400z"/>
<path style="fill:#626366; stroke:none;" d="M787 400L788 401L787 400z"/>
<path style="fill:#a4552a; stroke:none;" d="M403 401L404 402L403 401z"/>
<path style="fill:#f4be6c; stroke:none;" d="M631 401L632 402L631 401z"/>
<path style="fill:#626366; stroke:none;" d="M823 401L824 402L823 401z"/>
<path style="fill:#a4552a; stroke:none;" d="M402.333 402.667L402.667 403.333L402.333 402.667M417 402L418 403L417 402z"/>
<path style="fill:#f4be6c; stroke:none;" d="M786 402L787 403L786 402M823 402L824 403L823 402z"/>
<path style="fill:#626366; stroke:none;" d="M634 403L635 404L634 403z"/>
<path style="fill:#a4552a; stroke:none;" d="M418 404L419 405L418 404z"/>
<path style="fill:#f4be6c; stroke:none;" d="M635 404L636 405L635 404M785 404L786 405L785 404z"/>
<path style="fill:#626366; stroke:none;" d="M824 404L825 405L824 404z"/>
<path style="fill:#a4552a; stroke:none;" d="M401 405L401 412L402 412L401 405z"/>
<path style="fill:#f4be6c; stroke:none;" d="M636 405L637 406L636 405z"/>
<path style="fill:#626366; stroke:none;" d="M784 405L785 406L784 405M638 406L639 407L638 406M825 406L826 407L825 406z"/>
<path style="fill:#a4552a; stroke:none;" d="M419 407L420 408L419 407z"/>
<path style="fill:#626366; stroke:none;" d="M639 407L640 408L639 407z"/>
<path style="fill:#f4be6c; stroke:none;" d="M783 407L784 408L783 407M825 407L826 408L825 407M640 408L641 409L640 408z"/>
<path style="fill:#a4552a; stroke:none;" d="M420 409L421 410L420 409z"/>
<path style="fill:#626366; stroke:none;" d="M642 409L643 410L642 409z"/>
<path style="fill:#f4be6c; stroke:none;" d="M782 409L783 410L782 409z"/>
<path style="fill:#626366; stroke:none;" d="M826 409L827 410L826 409M627 410L627 413L628 413L627 410z"/>
<path style="fill:#f4be6c; stroke:none;" d="M643 410L644 411L643 410z"/>
<path style="fill:#626366; stroke:none;" d="M781 410L782 411L781 410z"/>
<path style="fill:#f4be6c; stroke:none;" d="M826 410L827 411L826 410z"/>
<path style="fill:#a4552a; stroke:none;" d="M421.333 411.667L421.667 412.333L421.333 411.667z"/>
<path style="fill:#626366; stroke:none;" d="M645 411L646 412L645 411z"/>
<path style="fill:#f4be6c; stroke:none;" d="M646 412L647 413L646 412z"/>
<path style="fill:#626366; stroke:none;" d="M780 412L781 413L780 412M827 412L828 413L827 412z"/>
<path style="fill:#f4be6c; stroke:none;" d="M627.333 413.667L627.667 414.333L627.333 413.667M648 413L649 414L648 413M827 413L828 414L827 413z"/>
<path style="fill:#a4552a; stroke:none;" d="M402.333 414.667L402.667 415.333L402.333 414.667M422.333 414.667L422.667 415.333L422.333 414.667z"/>
<path style="fill:#626366; stroke:none;" d="M650 414L651 415L650 414z"/>
<path style="fill:#f4be6c; stroke:none;" d="M779 414L780 415L779 414z"/>
<path style="fill:#a4552a; stroke:none;" d="M311 415L311 416L317 416L311 415z"/>
<path style="fill:#f4be6c; stroke:none;" d="M651 415L652 416L651 415z"/>
<path style="fill:#626366; stroke:none;" d="M778 415L779 416L778 415M828 415L829 416L828 415z"/>
<path style="fill:#a4552a; stroke:none;" d="M309 416L310 417L309 416z"/>
<path style="fill:#626366; stroke:none;" d="M310.108 416.742C298.706 421.593 307.975 454.876 321.956 449.257C333.892 444.46 323.863 410.89 310.108 416.742z"/>
<path style="fill:#a4552a; stroke:none;" d="M318 416L319 417L318 416z"/>
<path style="fill:#626366; stroke:none;" d="M653 416L654 417L653 416z"/>
<path style="fill:#f4be6c; stroke:none;" d="M778 416L779 417L778 416M828 416L829 417L828 416z"/>
<path style="fill:#a4552a; stroke:none;" d="M319 417L320 418L319 417z"/>
<path style="fill:#f4be6c; stroke:none;" d="M654 417L655 418L654 417z"/>
<path style="fill:#626366; stroke:none;" d="M777 417L778 418L777 417z"/>
<path style="fill:#a4552a; stroke:none;" d="M320 418L321 419L320 418M403.333 418.667L403.667 419.333L403.333 418.667M423 418L423 427L424 427L423 418z"/>
<path style="fill:#626366; stroke:none;" d="M656 418L657 419L656 418z"/>
<path style="fill:#a4552a; stroke:none;" d="M306 419L307 420L306 419z"/>
<path style="fill:#626366; stroke:none;" d="M626 419L626 425L627 425L626 419z"/>
<path style="fill:#f4be6c; stroke:none;" d="M657 419L658 420L657 419M776 419L777 420L776 419z"/>
<path style="fill:#626366; stroke:none;" d="M829 419L830 420L829 419z"/>
<path style="fill:#a4552a; stroke:none;" d="M321 420L322 421L321 420z"/>
<path style="fill:#f4be6c; stroke:none;" d="M659 420L660 421L659 420M829 420L830 421L829 420z"/>
<path style="fill:#a4552a; stroke:none;" d="M305.333 421.667L305.667 422.333L305.333 421.667z"/>
<path style="fill:#626366; stroke:none;" d="M661 421L662 422L661 421z"/>
<path style="fill:#f4be6c; stroke:none;" d="M775 421L776 422L775 421z"/>
<path style="fill:#a4552a; stroke:none;" d="M322 422L323 423L322 422M404.333 422.667L404.667 423.333L404.333 422.667z"/>
<path style="fill:#f4be6c; stroke:none;" d="M662 422L663 423L662 422z"/>
<path style="fill:#626366; stroke:none;" d="M830 422L831 423L830 422M664 423L665 424L664 423z"/>
<path style="fill:#f4be6c; stroke:none;" d="M774 423L775 424L774 423M830 423L831 424L830 423z"/>
<path style="fill:#626366; stroke:none;" d="M666 424L667 425L666 424M773 424L774 425L773 424z"/>
<path style="fill:#a4552a; stroke:none;" d="M323 425L324 426L323 425M405 425L406 426L405 425z"/>
<path style="fill:#f4be6c; stroke:none;" d="M626 425L626 439L627 439L626 425M667 425L668 426L667 425M669 426L670 427L669 426M772 426L773 427L772 426z"/>
<path style="fill:#626366; stroke:none;" d="M831 426L832 427L831 426z"/>
<path style="fill:#a4552a; stroke:none;" d="M324 427L325 428L324 427z"/>
<path style="fill:#626366; stroke:none;" d="M671 427L672 428L671 427M771 427L772 428L771 427z"/>
<path style="fill:#f4be6c; stroke:none;" d="M831 427L832 428L831 427z"/>
<path style="fill:#626366; stroke:none;" d="M673 428L674 429L673 428z"/>
<path style="fill:#a4552a; stroke:none;" d="M305.333 429.667L305.667 430.333L305.333 429.667M407 429L408 430L407 429z"/>
<path style="fill:#626366; stroke:none;" d="M675 429L676 430L675 429M769 429L770 430L769 429z"/>
<path style="fill:#a4552a; stroke:none;" d="M325 430L326 431L325 430M408 430L409 431L408 430M421 430L422 431L421 430z"/>
<path style="fill:#626366; stroke:none;" d="M677 430L678 431L677 430z"/>
<path style="fill:#f4be6c; stroke:none;" d="M768 430L769 431L768 430z"/>
<path style="fill:#626366; stroke:none;" d="M832 430L833 431L832 430z"/>
<path style="fill:#a4552a; stroke:none;" d="M409 431L410 432L409 431M420 431L421 432L420 431z"/>
<path style="fill:#626366; stroke:none;" d="M679 431L680 432L679 431M765 431L766 432L765 431z"/>
<path style="fill:#f4be6c; stroke:none;" d="M766 431L767 432L766 431M832 431L833 432L832 431z"/>
<path style="fill:#a4552a; stroke:none;" d="M411 432L412 433L411 432M418 432L419 433L418 432z"/>
<path style="fill:#626366; stroke:none;" d="M681 432L682 433L681 432M761 432L762 433L761 432z"/>
<path style="fill:#f4be6c; stroke:none;" d="M762 432L763 433L762 432z"/>
<path style="fill:#a4552a; stroke:none;" d="M306.333 433.667L306.667 434.333L306.333 433.667M326.333 433.667L326.667 434.333L326.333 433.667M414 433L415 434L414 433z"/>
<path style="fill:#626366; stroke:none;" d="M683 433L684 434L683 433M757.667 433.333L758.333 433.667L757.667 433.333z"/>
<path style="fill:#f4be6c; stroke:none;" d="M759 433L760 434L759 433z"/>
<path style="fill:#626366; stroke:none;" d="M833 433L834 434L833 433M685 434L686 435L685 434M753 434L754 435L753 434z"/>
<path style="fill:#f4be6c; stroke:none;" d="M754.667 434.333L755.333 434.667L754.667 434.333M833 434L834 435L833 434z"/>
<path style="fill:#626366; stroke:none;" d="M687 435L688 436L687 435M749 435L750 436L749 435z"/>
<path style="fill:#f4be6c; stroke:none;" d="M750 435L751 436L750 435M689 436L690 437L689 436z"/>
<path style="fill:#626366; stroke:none;" d="M745 436L746 437L745 436z"/>
<path style="fill:#f4be6c; stroke:none;" d="M746 436L747 437L746 436z"/>
<path style="fill:#a4552a; stroke:none;" d="M307 437L308 438L307 437z"/>
<path style="fill:#f4be6c; stroke:none;" d="M691 437L692 438L691 437z"/>
<path style="fill:#626366; stroke:none;" d="M741 437L742 438L741 437z"/>
<path style="fill:#f4be6c; stroke:none;" d="M742 437L743 438L742 437z"/>
<path style="fill:#626366; stroke:none;" d="M834 437L835 438L834 437z"/>
<path style="fill:#f4be6c; stroke:none;" d="M693 438L694 439L693 438z"/>
<path style="fill:#626366; stroke:none;" d="M738 438L739 439L738 438z"/>
<path style="fill:#f4be6c; stroke:none;" d="M739 438L740 439L739 438M834 438L835 439L834 438z"/>
<path style="fill:#a4552a; stroke:none;" d="M327 439L327 442L328 442L327 439z"/>
<path style="fill:#626366; stroke:none;" d="M695 439L696 440L695 439M733 439L734 440L733 439z"/>
<path style="fill:#f4be6c; stroke:none;" d="M734.667 439.333L735.333 439.667L734.667 439.333z"/>
<path style="fill:#a4552a; stroke:none;" d="M308.333 440.667L308.667 441.333L308.333 440.667z"/>
<path style="fill:#f4be6c; stroke:none;" d="M696 440L697 441L696 440z"/>
<path style="fill:#626366; stroke:none;" d="M697 440L698 441L697 440M726 440L726 441L729 441L726 440z"/>
<path style="fill:#f4be6c; stroke:none;" d="M729 440L730 441L729 440M699 441L700 442L699 441z"/>
<path style="fill:#626366; stroke:none;" d="M700.667 441.333L701.333 441.667L700.667 441.333M719 441L719 442L722 442L719 441z"/>
<path style="fill:#f4be6c; stroke:none;" d="M722.667 441.333L723.333 441.667L722.667 441.333z"/>
<path style="fill:#626366; stroke:none;" d="M835.333 441.667L835.667 442.333L835.333 441.667z"/>
<path style="fill:#f4be6c; stroke:none;" d="M704 442L704 443L708 443L704 442z"/>
<path style="fill:#626366; stroke:none;" d="M708 442L708 443L714 443L708 442z"/>
<path style="fill:#f4be6c; stroke:none;" d="M714.667 442.333L715.333 442.667L714.667 442.333M835 443L836 444L835 443z"/>
<path style="fill:#a4552a; stroke:none;" d="M310 445L311 446L310 445M326 445L327 446L326 445z"/>
<path style="fill:#626366; stroke:none;" d="M836 446L837 447L836 446z"/>
<path style="fill:#f4be6c; stroke:none;" d="M836.333 447.667L836.667 448.333L836.333 447.667z"/>
<path style="fill:#a4552a; stroke:none;" d="M314 449L315 450L314 449M322 449L323 450L322 449M317 450L317 451L320 451L317 450z"/>
<path style="fill:#626366; stroke:none;" d="M837.333 451.667L837.667 452.333L837.333 451.667z"/>
<path style="fill:#f4be6c; stroke:none;" d="M837.333 453.667L837.667 454.333L837.333 453.667M469 458L470 459L469 458M471 459L472 460L471 459M473 460L474 461L473 460z"/>
<path style="fill:#626366; stroke:none;" d="M625 460L626 461L625 460z"/>
<path style="fill:#f4be6c; stroke:none;" d="M475 461L476 462L475 461M477 462L478 463L477 462z"/>
<path style="fill:#626366; stroke:none;" d="M625 462L625 465L626 465L625 462z"/>
<path style="fill:#f4be6c; stroke:none;" d="M479 463L480 464L479 463M482.667 464.333L483.333 464.667L482.667 464.333M486 465L486 466L489 466L486 465M625 465L625 474L626 474L625 465M492.667 466.333L493.333 466.667L492.667 466.333M496 467L496 468L499 468L496 467M502 468L502 469L505 469L502 468M508 469L508 470L511 470L508 469M516 470L516 471L519 471L516 470M521 471L522 472L521 471z"/>
<path style="fill:#626366; stroke:none;" d="M522 471C518.456 490.09 534.519 507.174 552 512.411C557.958 514.196 565.189 516.748 570.941 512.991C575.648 509.917 574.049 505.736 574.464 501C576.02 483.231 564.009 475.064 548 471.669C539.652 469.899 530.498 471.198 522 471z"/>
<path style="fill:#f4be6c; stroke:none;" d="M521 473L522 474L521 473M625 475L625 478L626 478L625 475z"/>
<path style="fill:#626366; stroke:none;" d="M625 478L625 481L626 481L625 478M773.04 479.667C760.169 483.557 765.888 509.264 779.985 504.092C792.15 499.628 785.954 475.765 773.04 479.667z"/>
<path style="fill:#f4be6c; stroke:none;" d="M625 481L626 482L625 481M521 482L522 483L521 482z"/>
<path style="fill:#626366; stroke:none;" d="M624 482L625 483L624 482M623 484L624 485L623 484z"/>
<path style="fill:#f4be6c; stroke:none;" d="M622 486L623 487L622 486M621 488L622 489L621 488z"/>
<path style="fill:#626366; stroke:none;" d="M620 489L621 490L620 489M619 491L620 492L619 491M685.043 491.746C673.158 496.381 677.481 521.522 690.995 517.063C703.287 513.008 698.834 486.369 685.043 491.746z"/>
<path style="fill:#f4be6c; stroke:none;" d="M526 492L527 493L526 492M618 493L619 494L618 493M837 494L838 495L837 494M617 495L618 496L617 495M616 497L617 498L616 497M530 498L531 499L530 498M531 499L532 500L531 499M615 499L616 500L615 499M614 501L615 502L614 501M534 502L535 503L534 502M836 502L837 503L836 502M535 503L536 504L535 503z"/>
<path style="fill:#626366; stroke:none;" d="M613 503L614 504L613 503z"/>
<path style="fill:#f4be6c; stroke:none;" d="M538 505L539 506L538 505z"/>
<path style="fill:#626366; stroke:none;" d="M612 505L613 506L612 505M611 507L612 508L611 507z"/>
<path style="fill:#f4be6c; stroke:none;" d="M542 508L543 509L542 508M611 508L612 509L611 508M546 510L547 511L546 510M575 510L575 513L576 513L575 510M610 510L611 511L610 510M552 512L553 513L552 512z"/>
<path style="fill:#626366; stroke:none;" d="M609 512L610 513L609 512z"/>
<path style="fill:#f4be6c; stroke:none;" d="M555 513L556 514L555 513M609 513L610 514L609 513M559 514L560 515L559 514M568 514L569 515L568 514M575 514L575 519L576 519L575 514M563 515L563 516L566 516L563 515z"/>
<path style="fill:#626366; stroke:none;" d="M608 515L609 516L608 515z"/>
<path style="fill:#f4be6c; stroke:none;" d="M834 516L835 517L834 516z"/>
<path style="fill:#626366; stroke:none;" d="M607 518L608 519L607 518M833 520C822.143 524.156 798.417 525.471 792 536C803.238 535.106 814.143 531.151 825 528.374C829.526 527.217 834.962 525.711 833 520M606 521L607 522L606 521z"/>
<path style="fill:#f4be6c; stroke:none;" d="M575 522L575 527L576 527L575 522M606 522L607 523L606 522z"/>
<path style="fill:#626366; stroke:none;" d="M605 525L606 526L605 525z"/>
<path style="fill:#f4be6c; stroke:none;" d="M605 526L606 527L605 526z"/>
<path style="fill:#626366; stroke:none;" d="M832 527L833 528L832 527M604.333 528.667L604.667 529.333L604.333 528.667z"/>
<path style="fill:#f4be6c; stroke:none;" d="M604 530L605 531L604 530M574 531L574 534L575 534L574 531M798 531L799 532L798 531z"/>
<path style="fill:#626366; stroke:none;" d="M603.333 532.667L603.667 533.333L603.333 532.667M625 533C627.987 538.746 635.142 540.297 641 542.116C654.857 546.419 670.436 551.365 685 552C682.357 547.16 676.923 546.833 672 545.255C662.062 542.07 651.91 539.634 642 536.333C636.414 534.473 630.889 531.397 625 533z"/>
<path style="fill:#f4be6c; stroke:none;" d="M795 532L796 533L795 532M804 533L805 534L804 533M603 534L604 535L603 534M791.333 534.667L791.667 535.333L791.333 534.667M796.667 535.333L797.333 535.667L796.667 535.333M732 536L733 537L732 536z"/>
<path style="fill:#626366; stroke:none;" d="M772 564C765.84 564.953 762.515 570.505 757 573.081C748.253 577.166 737.899 569.984 741.742 560.004C744.15 553.751 751.802 551.227 755.677 545.996C757.479 543.565 758.086 540.916 755.677 538.653C748.984 532.363 714.737 534.172 714.442 545.997C714.125 558.732 740.694 555.576 732.427 571.957C725.723 585.242 715.14 572.783 707.059 570.887C702.942 569.92 703.027 574.524 704.608 576.961C709.629 584.698 721.721 587.509 730 584.441C733.366 583.193 736.643 579.353 740.17 579.033C751.826 577.976 771.364 583.595 772 564z"/>
<path style="fill:#f4be6c; stroke:none;" d="M793 536L794 537L793 536M831 536L832 537L831 536M573.333 537.667L573.667 538.333L573.333 537.667z"/>
<path style="fill:#626366; stroke:none;" d="M602.333 537.667L602.667 538.333L602.333 537.667z"/>
<path style="fill:#f4be6c; stroke:none;" d="M722.667 537.333L723.333 537.667L722.667 537.333M754 537L755 538L754 537M719 538L720 539L719 538M602 539L603 540L602 539M572 541L573 542L572 541z"/>
<path style="fill:#626366; stroke:none;" d="M601.333 542.667L601.667 543.333L601.333 542.667z"/>
<path style="fill:#f4be6c; stroke:none;" d="M571 544L572 545L571 544M601 544L601 547L602 547L601 544M669 544L670 545L669 544z"/>
<path style="fill:#626366; stroke:none;" d="M829 544L830 545L829 544z"/>
<path style="fill:#f4be6c; stroke:none;" d="M672 545L673 546L672 545z"/>
<path style="fill:#626366; stroke:none;" d="M798 552L828 552L829 545C821.831 545.308 802.206 546.046 798 552z"/>
<path style="fill:#f4be6c; stroke:none;" d="M568 546L569 547L568 546z"/>
<path style="fill:#626366; stroke:none;" d="M571 546C550.481 550.704 530.604 558.031 510 562.576C462.428 573.068 413.492 577.018 365 572.169C347.931 570.462 332.393 566.191 316 561.28C311.482 559.927 302.457 556.955 302.457 565.005C302.457 571.938 311.861 576.452 317 579.23C337.083 590.087 353.422 581.999 375 582C388.869 582.001 403.483 582.916 417 586.239C421.935 587.452 426.201 592.404 431.039 592.683C458.44 594.264 488.316 585.795 515 580.449C526.86 578.073 548.637 577.449 558.363 570.012C564.226 565.529 569.018 552.93 571 546z"/>
<path style="fill:#f4be6c; stroke:none;" d="M676 546L677 547L676 546M565 547L566 548L565 547M679.667 547.333L680.333 547.667L679.667 547.333M813 547L814 548L813 547M561 548L562 549L561 548M666 548L667 549L666 548M714 548L715 549L714 548M804 548L804 549L807 549L804 548M558 549L559 550L558 549z"/>
<path style="fill:#626366; stroke:none;" d="M600.333 549.667L600.667 550.333L600.333 549.667z"/>
<path style="fill:#f4be6c; stroke:none;" d="M671 549L672 550L671 549M684 549L685 550L684 549M799 549L800 550L799 549M555 550L556 551L555 550M675 550L676 551L675 550M715 550L716 551L715 550M551 551L552 552L551 551M600 551L600 554L601 554L600 551M679 551L680 552L679 551M809 551L809 552L812 552L809 551M548 552L549 553L548 552M681 552L681 553L684 553L681 552M717 552L718 553L717 552M544 553L545 554L544 553M541 554L542 555L541 554z"/>
<path style="fill:#e9cfca; stroke:none;" d="M853 554L848 574L854 575L853 554z"/>
<path style="fill:#f4be6c; stroke:none;" d="M537 555L538 556L537 555M722 555L723 556L722 555M534 556L535 557L534 556z"/>
<path style="fill:#e9cfca; stroke:none;" d="M160 557L160 637C160 645.931 156.97 661.497 160.603 669.671C163.732 676.711 178.462 684.356 185 688C185 667.517 188.696 643.052 184.62 623C182.158 610.884 174.242 598.746 170.075 587C166.751 577.63 165.138 565.41 160 557z"/>
<path style="fill:#f4be6c; stroke:none;" d="M530 557L531 558L530 557M728 557L729 558L728 557M742 557L743 558L742 557M825 557L826 558L825 557M526 558L527 559L526 558M730 558L731 559L730 558M731 559L732 560L731 559M741 559L742 560L741 559M303 560L304 561L303 560M313 560L314 561L313 560M518 560L519 561L518 560M600.333 560.667L600.667 561.333L600.333 560.667M514 561L515 562L514 561M302 562L303 563L302 562M510 562L511 563L510 562z"/>
<path style="fill:#626366; stroke:none;" d="M600 562L601 563L600 562z"/>
<path style="fill:#f4be6c; stroke:none;" d="M674 562L674 563L677 564L674 562M505 563L506 564L505 563M666.667 563.333L667.333 563.667L666.667 563.333z"/>
<path style="fill:#626366; stroke:none;" d="M609 574L633 572.289L677 565C672.365 561.489 666.382 563.92 661 564.331C648.617 565.276 636.32 566.459 624 568.438C618.761 569.28 611.751 569.011 609 574z"/>
<path style="fill:#f4be6c; stroke:none;" d="M733.333 563.667L733.667 564.333L733.333 563.667M768 563L768 564L771 564L768 563M499 564L500 565L499 564M657 564L657 565L661 565L657 564M767 564L768 565L767 564z"/>
<path style="fill:#626366; stroke:none;" d="M824 564L825 565L824 564z"/>
<path style="fill:#f4be6c; stroke:none;" d="M493 565L494 566L493 565M601.333 565.667L601.667 566.333L601.333 565.667M676 565L677 566L676 565M772 565L772 568L773 568L772 565M794 565L793 567L794 565z"/>
<path style="fill:#626366; stroke:none;" d="M794 566L794 568L820 576L821 576L823 569L794 566z"/>
<path style="fill:#f4be6c; stroke:none;" d="M797.667 565.333L798.333 565.667L797.667 565.333M488 566L489 567L488 566M671 566L671 567L674 567L671 566M801.667 566.333L802.333 566.667L801.667 566.333M336 567L337 568L336 567M482 567L483 568L482 567z"/>
<path style="fill:#626366; stroke:none;" d="M601.333 567.667L601.667 568.333L601.333 567.667z"/>
<path style="fill:#f4be6c; stroke:none;" d="M664 567L664 568L667 568L664 567M765 567L766 568L765 567M807 567L808 568L807 567M339 568L340 569L339 568M477 568L478 569L477 568M733.333 568.667L733.667 569.333L733.333 568.667M741 568L742 569L741 568M795 568L796 569L795 568M344 569L345 570L344 569M471 569L472 570L471 569M798 569L799 570L798 569M304 570L305 571L304 570M350.667 570.333L351.333 570.667L350.667 570.333M464.667 570.333L465.333 570.667L464.667 570.333M703 570L704 571L703 570M707 570L708 571L707 570M803 570L804 571L803 570M305 571L306 572L305 571M357 571L358 572L357 571M457.667 571.333L458.333 571.667L457.667 571.333M554 571L555 572L554 571M558.333 571.667L558.667 572.333L558.333 571.667M602 571L603 572L602 571M760 571L761 572L760 571M770 571L771 572L770 571M807 571L808 572L807 571M306 572L307 573L306 572M367.667 572.333L368.333 572.667L367.667 572.333M447 572L448 573L447 572M551 572L552 573L551 572z"/>
<path style="fill:#626366; stroke:none;" d="M602.333 572.667L602.667 573.333L602.333 572.667z"/>
<path style="fill:#f4be6c; stroke:none;" d="M702 572L702 575L703 575L702 572M758 572L759 573L758 572M769 572L770 573L769 572M380 573L380 574L384 574L380 573M431 573L431 574L435 574L431 573M547 573L548 574L547 573M745 573L746 574L745 573M756 573L757 574L756 573M768 573L769 574L768 573M543 574L544 575L543 574M731 574L732 575L731 574M748 574L748 575L754 575L748 574M767 574L768 575L767 574z"/>
<path style="fill:#626366; stroke:none;" d="M847 579L854 581C853.803 575.066 848.595 571.695 847 579z"/>
<path style="fill:#f4be6c; stroke:none;" d="M538 575L539 576L538 575M730 575L731 576L730 575M312 576L313 577L312 576M533 576L534 577L533 576M557.333 576.667L557.667 577.333L557.333 576.667M603 576L604 577L603 576M703 576L704 577L703 576M715 576L716 577L715 576M764 576L765 577L764 576M529 577L530 578L529 577z"/>
<path style="fill:#626366; stroke:none;" d="M603 577L604 578L603 577z"/>
<path style="fill:#f4be6c; stroke:none;" d="M704 577L705 578L704 577M717 577L718 578L717 577M726 577L727 578L726 577M315 578L316 579L315 578M524 578L525 579L524 578M705 578L706 579L705 578M738 578L739 579L738 578M741 578L742 579L741 578M761 578L762 579L761 578M317 579L318 580L317 579M520 579L521 580L520 579M604 579L605 580L604 579M759 579L760 580L759 579z"/>
<path style="fill:#e9cfca; stroke:none;" d="M846 579C841.074 605.531 845 636.014 845 663C858.425 646.386 854 620.85 854 601C854 592.069 857.224 580.557 846 579z"/>
<path style="fill:#f4be6c; stroke:none;" d="M319 580L320 581L319 580M514 580L515 581L514 580M556 580L557 581L556 580z"/>
<path style="fill:#626366; stroke:none;" d="M604 580L605 581L604 580z"/>
<path style="fill:#f4be6c; stroke:none;" d="M745 580L746 581L745 580M756 580L757 581L756 580M818 580L819 581L818 580M321 581L322 582L321 581M510 581L511 582L510 581M679 581L680 582L679 581z"/>
<path style="fill:#626366; stroke:none;" d="M637 604L671 589.159L683 581C671.09 582.785 657.839 589.029 647 594.222C642.258 596.494 635.533 597.699 637 604z"/>
<path style="fill:#f4be6c; stroke:none;" d="M683.333 581.667L683.667 582.333L683.333 581.667M709 581L710 582L709 581M735 581L736 582L735 581M749 581L749 582L752 582L749 581z"/>
<path style="fill:#a4552a; stroke:none;" d="M339 587C336.595 598.242 327.395 607.107 326.174 619C324.184 638.396 342.802 649.115 360 647.911C378.656 646.604 396.757 632.614 408.575 618.999C415.439 611.092 420.168 599.664 428 593C423.617 585.421 412.921 584.973 405 583.87C384.604 581.028 358.429 578.748 339 587z"/>
<path style="fill:#f4be6c; stroke:none;" d="M505 582L506 583L505 582M605 582L606 583L605 582M676 582L677 583L676 582M325 583L326 584L325 583M499 583L500 584L499 583M555 583L556 584L555 583z"/>
<path style="fill:#626366; stroke:none;" d="M605 583L606 584L605 583z"/>
<path style="fill:#f4be6c; stroke:none;" d="M674 583L675 584L674 583M712 583L713 584L712 583M327 584L328 585L327 584M494 584L495 585L494 584M672 584L673 585L672 584M681 584L682 585L681 584M715 584L716 585L715 584z"/>
<path style="fill:#626366; stroke:none;" d="M817 584L818 585L817 584z"/>
<path style="fill:#f4be6c; stroke:none;" d="M489 585L490 586L489 585M554 585L555 586L554 585M606 585L607 586L606 585M719 585L720 586L719 585M726 585L727 586L726 585M816 585L817 586L816 585M334 586L335 587L334 586M484 586L485 587L484 586M667 586L668 587L667 586M676 586L677 587L676 586M338 587L337 591L338 587M478 587L479 588L478 587M553 587L554 588L553 587M607 587L608 588L607 587M472 588L473 589L472 588M465 589L466 590L465 589M608 589L609 590L608 589M669 589L670 590L669 589z"/>
<path style="fill:#626366; stroke:none;" d="M815 589L816 590L815 589z"/>
<path style="fill:#f4be6c; stroke:none;" d="M457.667 590.333L458.333 590.667L457.667 590.333M551 590L552 591L551 590M336.333 591.667L336.667 592.333L336.333 591.667M445.667 591.333L446.333 591.667L445.667 591.333z"/>
<path style="fill:#626366; stroke:none;" d="M609 591L610 592L609 591z"/>
<path style="fill:#f4be6c; stroke:none;" d="M433.667 592.333L434.333 592.667L433.667 592.333M335 593L334 598L335 598L335 593M426 593L427 594L426 593M549 593L550 594L549 593z"/>
<path style="fill:#626366; stroke:none;" d="M610 593L611 594L610 593z"/>
<path style="fill:#f4be6c; stroke:none;" d="M425.333 594.667L425.667 595.333L425.333 594.667M548 594L549 595L548 594M611 594L612 595L611 594M424.333 596.667L424.667 597.333L424.333 596.667z"/>
<path style="fill:#626366; stroke:none;" d="M612 596L613 597L612 596z"/>
<path style="fill:#f4be6c; stroke:none;" d="M812 596L813 597L812 596M613 597L614 598L613 597M333.333 598.667L333.667 599.333L333.333 598.667M423 598L422 601L423 598M811 598L812 599L811 598M543 599L544 600L543 599z"/>
<path style="fill:#626366; stroke:none;" d="M614 599L615 600L614 599z"/>
<path style="fill:#f4be6c; stroke:none;" d="M332.333 600.667L332.667 601.333L332.333 600.667M542 600L543 601L542 600M615 600L616 601L615 600M421.333 601.667L421.667 602.333L421.333 601.667M541 601L542 602L541 601M616 601L617 602L616 601M331 602L330 605L331 602M809 602L810 603L809 602M420 603L419 606L420 603M538 603L539 604L538 603z"/>
<path style="fill:#626366; stroke:none;" d="M617 603L618 604L617 603z"/>
<path style="fill:#f4be6c; stroke:none;" d="M536 604L537 605L536 604z"/>
<path style="fill:#626366; stroke:none;" d="M618 604L619 605L618 604M808 604L809 605L808 604z"/>
<path style="fill:#f4be6c; stroke:none;" d="M329 605L328 610L329 610L329 605M535 605L536 606L535 605z"/>
<path style="fill:#626366; stroke:none;" d="M619 605L620 606L619 605z"/>
<path style="fill:#f4be6c; stroke:none;" d="M418 606L417 609L418 606M533 606L534 607L533 606z"/>
<path style="fill:#626366; stroke:none;" d="M620 606L621 607L620 606z"/>
<path style="fill:#f4be6c; stroke:none;" d="M531 607L532 608L531 607z"/>
<path style="fill:#626366; stroke:none;" d="M621 607L622 608L621 607z"/>
<path style="fill:#f4be6c; stroke:none;" d="M530 608L531 609L530 608z"/>
<path style="fill:#626366; stroke:none;" d="M622 608L623 609L622 608z"/>
<path style="fill:#f4be6c; stroke:none;" d="M416 609L415 612L416 609M528 609L529 610L528 609z"/>
<path style="fill:#626366; stroke:none;" d="M623 609L624 610L623 609z"/>
<path style="fill:#f4be6c; stroke:none;" d="M806 609L807 610L806 609M327 610L325 626L326 626L327 610M526 610L527 611L526 610z"/>
<path style="fill:#626366; stroke:none;" d="M624.333 610.667L624.667 611.333L624.333 610.667z"/>
<path style="fill:#f4be6c; stroke:none;" d="M524 611L525 612L524 611z"/>
<path style="fill:#626366; stroke:none;" d="M805 611L806 612L805 611z"/>
<path style="fill:#f4be6c; stroke:none;" d="M414 612L415 613L414 612M413 613L414 614L413 613M521 613L522 614L521 613z"/>
<path style="fill:#626366; stroke:none;" d="M624.333 613.667L624.667 614.333L624.333 613.667z"/>
<path style="fill:#f4be6c; stroke:none;" d="M412 614L409 619L412 614M518 614L519 615L518 614M516 615L517 616L516 615M513.667 616.333L514.333 616.667L513.667 616.333M623 616L624 617L623 616z"/>
<path style="fill:#626366; stroke:none;" d="M803 616L804 617L803 616z"/>
<path style="fill:#f4be6c; stroke:none;" d="M510.667 617.333L511.333 617.667L510.667 617.333z"/>
<path style="fill:#626366; stroke:none;" d="M622 617L623 618L622 617z"/>
<path style="fill:#f4be6c; stroke:none;" d="M802 617L803 618L802 617M508 618L509 619L508 618M622 618L623 619L622 618M408 619L409 620L408 619M505 619L506 620L505 619z"/>
<path style="fill:#626366; stroke:none;" d="M621 619L622 620L621 619M801 619L802 620L801 619z"/>
<path style="fill:#f4be6c; stroke:none;" d="M407 620L408 621L407 620M502.667 620.333L503.333 620.667L502.667 620.333M406 621L407 622L406 621M500 621L501 622L500 621M620 621L621 622L620 621M405 622L406 623L405 622M497 622L498 623L497 622z"/>
<path style="fill:#626366; stroke:none;" d="M619 622L620 623L619 622z"/>
<path style="fill:#f4be6c; stroke:none;" d="M404 623L405 624L404 623M494 623L495 624L494 623M799 623L800 624L799 623M403 624L404 625L403 624M491.667 624.333L492.333 624.667L491.667 624.333M402 625L403 626L402 625M488.667 625.333L489.333 625.667L488.667 625.333M617 625L618 626L617 625M326 626L329 636L330 636L326 626M396 631L402 626L396 631M485.667 626.333L486.333 626.667L485.667 626.333M616 626L617 627L616 626z"/>
<path style="fill:#626366; stroke:none;" d="M798 626L799 627L798 626z"/>
<path style="fill:#f4be6c; stroke:none;" d="M482 627L483 628L482 627z"/>
<path style="fill:#626366; stroke:none;" d="M615 627L616 628L615 627z"/>
<path style="fill:#f4be6c; stroke:none;" d="M797 627L798 628L797 627M478.667 628.333L479.333 628.667L478.667 628.333M475 629L476 630L475 629z"/>
<path style="fill:#626366; stroke:none;" d="M796 629L797 630L796 629z"/>
<path style="fill:#f4be6c; stroke:none;" d="M473 630L474 631L473 630M795 630L796 631L795 630M395 631L396 632L395 631M471 631L472 632L471 631M391 635L395 632L391 635M469 632L470 633L469 632M467 633L468 634L467 633z"/>
<path style="fill:#626366; stroke:none;" d="M794 633L795 634L794 633z"/>
<path style="fill:#f4be6c; stroke:none;" d="M466 634L467 635L466 634M793 634L794 635L793 634M390 635L391 636L390 635M465 635L466 636L465 635M330 636L332 639L330 636M387 638L390 636L387 638M464 636L465 637L464 636M606 636L607 637L606 636M792 636L793 637L792 636M463 637L464 638L463 637M605 637L606 638L605 637M384 640L387 638L384 640M604 638L605 639L604 638z"/>
<path style="fill:#626366; stroke:none;" d="M791 638L792 639L791 638z"/>
<path style="fill:#f4be6c; stroke:none;" d="M332 639L337 643L332 639M374 644L374 645L384 641L374 644M601 640L602 641L601 640z"/>
<path style="fill:#626366; stroke:none;" d="M789 640L790 641L789 640z"/>
<path style="fill:#f4be6c; stroke:none;" d="M460 641L461 642L460 641z"/>
<path style="fill:#626366; stroke:none;" d="M599 641L600 642L599 641z"/>
<path style="fill:#f4be6c; stroke:none;" d="M459 642L460 643L459 642M598 642L599 643L598 642M337.667 643.333L338.333 643.667L337.667 643.333M458 643L459 644L458 643M596 643L597 644L596 643M339 644L339 645C346.736 649.06 354.479 649 363 649L363 648L339 644M457 644C444.819 652.725 433.489 661.054 425.425 674C422.325 678.977 419.62 684.2 418.464 690C417.703 693.816 418.294 700.472 415.397 703.401C412.063 706.772 404.334 705.997 400 706L400 707L425 705.004L436.397 703.972L439.464 688L450.247 659L457 644M594 644L595 645L594 644M853 644L845.213 665L845 716C819.896 716 791.797 712.41 767 716.147C761.136 717.031 757.584 724.74 752.089 724.964C749.257 725.08 745.99 721.972 742.996 721.444C732.349 719.563 722.538 717.655 712 714.884C688.423 708.685 664.214 704.297 640 701.285C574.965 693.193 510.07 699.206 445 702L445 705C473.938 705 501.91 700.302 531 701.015C568.084 701.923 606.414 708.86 643 714.92C675.897 720.369 715.373 729.003 743 748.789C756.208 758.248 764.34 772.906 773.347 786C790.077 810.318 808.573 840.793 833 858L833 814L854 814L854 695C854 680.7 858.506 657.121 853 644M371 645L371 646L374 646L371 645z"/>
<path style="fill:#626366; stroke:none;" d="M591 645L592 646L591 645z"/>
<path style="fill:#f4be6c; stroke:none;" d="M592 645L593 646L592 645M363 647L363 648L371 647L363 647z"/>
<path style="fill:#626366; stroke:none;" d="M588 646L589 647L588 646z"/>
<path style="fill:#f4be6c; stroke:none;" d="M589 646L590 647L589 646z"/>
<path style="fill:#626366; stroke:none;" d="M786 646L787 647L786 646M584 647L585 648L584 647z"/>
<path style="fill:#f4be6c; stroke:none;" d="M585 647L586 648L585 647M785 647L786 648L785 647z"/>
<path style="fill:#626366; stroke:none;" d="M579.667 648.333L580.333 648.667L579.667 648.333z"/>
<path style="fill:#f4be6c; stroke:none;" d="M581 648L582 649L581 648z"/>
<path style="fill:#626366; stroke:none;" d="M566 649L566 650L571 650L566 649z"/>
<path style="fill:#f4be6c; stroke:none;" d="M571 649L571 650L575 650L571 649z"/>
<path style="fill:#626366; stroke:none;" d="M784 649L785 650L784 649M542 650L542 651L545 651L542 650z"/>
<path style="fill:#f4be6c; stroke:none;" d="M545 650L545 651L550 651L545 650M552 650L552 651L558 651L552 650M783 650L784 651L783 650M529 651L529 652L537 652L529 651z"/>
<path style="fill:#626366; stroke:none;" d="M516.667 652.333L517.333 652.667L516.667 652.333z"/>
<path style="fill:#f4be6c; stroke:none;" d="M518 652L518 653L523 653L518 652z"/>
<path style="fill:#626366; stroke:none;" d="M782 652L783 653L782 652M508 653L509 654L508 653z"/>
<path style="fill:#f4be6c; stroke:none;" d="M509 653L509 654L513 654L509 653M781 653L782 654L781 653z"/>
<path style="fill:#626366; stroke:none;" d="M501 654L502 655L501 654z"/>
<path style="fill:#f4be6c; stroke:none;" d="M502 654L502 655L505 655L502 654z"/>
<path style="fill:#626366; stroke:none;" d="M496 655L497 656L496 655z"/>
<path style="fill:#f4be6c; stroke:none;" d="M497.667 655.333L498.333 655.667L497.667 655.333z"/>
<path style="fill:#626366; stroke:none;" d="M491 656L492 657L491 656z"/>
<path style="fill:#f4be6c; stroke:none;" d="M492.667 656.333L493.333 656.667L492.667 656.333z"/>
<path style="fill:#626366; stroke:none;" d="M779 656L780 657L779 656M486 657L487 658L486 657z"/>
<path style="fill:#f4be6c; stroke:none;" d="M487.667 657.333L488.333 657.667L487.667 657.333z"/>
<path style="fill:#626366; stroke:none;" d="M482 658L483 659L482 658z"/>
<path style="fill:#f4be6c; stroke:none;" d="M483.667 658.333L484.333 658.667L483.667 658.333z"/>
<path style="fill:#626366; stroke:none;" d="M777 658L778 659L777 658M478 659L479 660L478 659z"/>
<path style="fill:#f4be6c; stroke:none;" d="M479 659L480 660L479 659z"/>
<path style="fill:#626366; stroke:none;" d="M474 660L475 661L474 660z"/>
<path style="fill:#f4be6c; stroke:none;" d="M475 660L476 661L475 660z"/>
<path style="fill:#626366; stroke:none;" d="M470 661L471 662L470 661z"/>
<path style="fill:#f4be6c; stroke:none;" d="M471.667 661.333L472.333 661.667L471.667 661.333z"/>
<path style="fill:#626366; stroke:none;" d="M467 662L468 663L467 662z"/>
<path style="fill:#f4be6c; stroke:none;" d="M468 662L469 663L468 662z"/>
<path style="fill:#626366; stroke:none;" d="M464 663L465 664L464 663z"/>
<path style="fill:#f4be6c; stroke:none;" d="M465 663L466 664L465 663z"/>
<path style="fill:#626366; stroke:none;" d="M774 663L775 664L774 663M461 664L462 665L461 664z"/>
<path style="fill:#f4be6c; stroke:none;" d="M462 664L463 665L462 664z"/>
<path style="fill:#626366; stroke:none;" d="M459 665L460 666L459 665M456 666L457 667L456 666z"/>
<path style="fill:#f4be6c; stroke:none;" d="M457 666L458 667L457 666M453 667L454 668L453 667M452 668L453 669L452 668z"/>
<path style="fill:#626366; stroke:none;" d="M451 670L452 671L451 670z"/>
<path style="fill:#f4be6c; stroke:none;" d="M160 671L160 814L182 814L182 692L185 692C183.668 683.552 167.72 673.85 160 671z"/>
<path style="fill:#626366; stroke:none;" d="M768 671L769 672L768 671M450 672L451 673L450 672z"/>
<path style="fill:#f4be6c; stroke:none;" d="M450 673L451 674L450 673z"/>
<path style="fill:#626366; stroke:none;" d="M449 675L450 676L449 675z"/>
<path style="fill:#f4be6c; stroke:none;" d="M765 675L766 676L765 675M448 678L449 679L448 678M763 678L764 679L763 678M761 680L762 681L761 680z"/>
<path style="fill:#626366; stroke:none;" d="M447 681L448 682L447 681z"/>
<path style="fill:#f4be6c; stroke:none;" d="M447 682L448 683L447 682M759 682L760 683L759 682M758 683L759 684L758 683z"/>
<path style="fill:#626366; stroke:none;" d="M446 684L447 685L446 684z"/>
<path style="fill:#f4be6c; stroke:none;" d="M446 685L447 686L446 685M756 685L757 686L756 685z"/>
<path style="fill:#626366; stroke:none;" d="M445.333 688.667L445.667 689.333L445.333 688.667z"/>
<path style="fill:#f4be6c; stroke:none;" d="M445 690L445 693L446 693L445 690M751 692L752 693L751 692M749 694L750 695L749 694M746 697L747 698L746 697z"/>
<path style="fill:#626366; stroke:none;" d="M444.333 698.667L444.667 699.333L444.333 698.667z"/>
<path style="fill:#f4be6c; stroke:none;" d="M744 699L745 700L744 699M742 701L743 702L742 701M273 704L274 705L273 704M739 704L740 705L739 704M275 706L276 707L275 706M737 706L738 707L737 706M391 707L391 708L400 708L391 707M382 708L382 709L391 709L382 708M735 708L736 709L735 708M279 709L280 710L279 709M374 709L374 710L382 710L374 709M734 709L735 710L734 709M366 710L366 711L374 711L366 710M281 711L282 712L281 711M357 711L357 712L366 712L357 711M732 711L733 712L732 711M349 712L349 713L357 713L349 712M282 713L283 714L282 713M341 713L341 714L349 714L341 713M730 713L731 714L730 713M332 714L332 715L340 715L332 714M285 715L286 716L285 715M324 715L324 716L332 716L324 715M317 716L317 717L324 717L317 716M725 716L726 717L725 716M310 717L310 718L316 718L310 717M289 718L290 719L289 718M301 718L301 719L310 719L301 718M291 719L292 720L291 719M294 719L294 720L298 720L294 719M550.667 741.333L551.333 741.667L550.667 741.333M461.667 742.333L462.333 742.667L461.667 742.333M493.667 742.333L494.333 742.667L493.667 742.333z"/>
<path style="fill:#e9cfca; stroke:none;" d="M497 759L498 759C499.118 763.83 501.034 768.328 502.656 773C504.477 778.247 505.908 789.071 511.214 791.953C515.829 794.46 520.422 789.009 523.079 785.961C531.389 776.426 537.656 763.441 548 756C544.763 769.14 543.164 784.473 543.004 798C542.961 801.602 541.841 809.943 547.089 810.534C552.793 811.176 552.029 803.467 551.576 800C549.792 786.365 552.983 771.543 554.87 758C555.42 754.048 558.258 745.583 553.812 743.047C548.981 740.291 544.344 746.867 541.805 750C535.004 758.392 526.664 776.411 516.769 781.079C512.923 782.893 511.182 775.411 510.344 773C507.462 764.709 505.093 756.036 501.532 748.005C500.211 745.027 497.915 741.614 494.144 742.952C489.314 744.667 490 755.762 489.196 760C486.402 774.732 478.995 790.016 478.348 804.999C478.186 808.76 482.446 814.227 485.683 809.562C488.172 805.975 488.128 799.226 489.003 795C489.974 790.312 491.198 785.68 492.21 781C493.797 773.658 495.569 766.379 497 759z"/>
<path style="fill:#f4be6c; stroke:none;" d="M548 742L549 743L548 742M459 743L460 744L459 743z"/>
<path style="fill:#e9cfca; stroke:none;" d="M460.125 743.801C455.284 745.554 456.195 752.983 455.715 757C454.082 770.641 452.999 784.256 453 798C453 801.181 452.313 813.602 458.867 810.824C463.936 808.676 461.209 799.073 460.715 795C459.082 781.528 462.599 767.274 464.746 754C465.268 750.775 466.261 741.579 460.125 743.801z"/>
<path style="fill:#f4be6c; stroke:none;" d="M547 743L548 744L547 743M546 744L547 745L546 744z"/>
<path style="fill:#e9cfca; stroke:none;" d="M587.015 744.89C582.427 746.11 582.067 753.234 581.127 757C577.936 769.78 574.011 783.85 573.089 797C572.86 800.276 571.31 812.216 577.05 811.534C582.823 810.848 580.799 800.877 581.17 797C582.553 782.523 586.898 768.923 590.705 755C591.52 752.021 593.002 743.299 587.015 744.89z"/>
<path style="fill:#f4be6c; stroke:none;" d="M500 745L501 746L500 745M427 746L426 748L427 746z"/>
<path style="fill:#e9cfca; stroke:none;" d="M428.184 747.086C422.985 749.928 423.945 761.058 424.004 766C424.193 781.977 428.244 803.59 408 809.073C381.791 816.171 382.904 783.08 384.089 767C384.281 764.389 388.15 746.505 380.238 750.176C374.804 752.698 376.008 771.745 376 777C375.988 784.514 375.008 792.8 377.548 800C383.716 817.489 402.505 821.866 418 813.352C436.055 803.431 431.744 782.036 432.91 765C433.117 761.985 434.755 743.495 428.184 747.086z"/>
<path style="fill:#f4be6c; stroke:none;" d="M465.333 746.667L465.667 747.333L465.333 746.667M556.333 746.667L556.667 747.333L556.333 746.667M591 746L592 747L591 746M432 747L433 748L432 747M456.333 747.667L456.667 748.333L456.333 747.667M501 747L502 748L501 747M425 749L426 750L425 749M465.333 749.667L465.667 750.333L465.333 749.667M490 749L490 752L491 752L490 749M542 749L543 750L542 749z"/>
<path style="fill:#e9cfca; stroke:none;" d="M348.314 751.047C344.776 753.249 346.619 758.71 346.925 762C347.805 771.471 350.896 781.553 340 785.767C334.44 787.917 315.679 795.449 310.514 791.307C304.874 786.784 308.938 773.283 307.772 767.005C307.25 764.197 304.815 760.245 301.434 762.238C297.79 764.385 299.843 774.397 300.09 778C300.975 790.919 303.231 805.101 301.715 818C301.202 822.354 300.077 829.736 305.935 831.248C309.641 832.205 309.911 827.437 309.985 824.999C310.17 818.825 306.342 807.875 310.028 802.43C313.589 797.168 337.729 792.29 343.956 792.782C351.181 793.352 349.722 810.709 350.015 815.999C350.185 819.044 351.563 824.092 355.776 821.914C360.858 819.286 358.171 810.354 357.576 806C355.483 790.668 355.081 775.452 354.999 760C354.981 756.618 354.199 747.384 348.314 751.047z"/>
<path style="fill:#f4be6c; stroke:none;" d="M502 750L503 751L502 750M541 750L542 751L541 750M582.333 750.667L582.667 751.333L582.333 750.667M384 751L385 752L384 751z"/>
<path style="fill:#e9cfca; stroke:none;" d="M631 760C629.011 774.774 622.698 788.983 622.039 804C621.926 806.593 621.822 821.822 628.262 816.164C631.643 813.192 629.766 805.031 630.289 801C631.726 789.939 633.275 773.94 638.569 764.059C642.469 756.777 656.418 760.194 663 761.246C665.628 761.666 671.032 762.931 671.534 758.91C672.198 753.59 661.406 753.19 658 753.039C643.963 752.419 630.01 753.212 616 752.086C612.653 751.817 604.094 749.368 602.176 753.299C600.468 756.799 605.611 758.307 608.001 758.695C615.288 759.879 623.6 759.682 631 760z"/>
<path style="fill:#f4be6c; stroke:none;" d="M609 751L609 752L612 752L609 751M354 752L355 753L354 752M591 752L592 753L591 752M619 752L619 753L623 753L619 752M377 753L378 754L377 753M424 753L424 756L425 756L424 753M503 753L504 754L503 753M555.333 753.667L555.667 754.333L555.333 753.667M662.667 753.333L663.333 753.667L662.667 753.333M538 754L539 755L538 754M667 754L668 755L667 754M464 755L465 756L464 755M581 755L582 756L581 755M590 755L591 756L590 755M504 756L505 757L504 756M547.333 756.667L547.667 757.333L547.333 756.667M685 756L686 757L685 756z"/>
<path style="fill:#e9cfca; stroke:none;" d="M685.91 757.346C679.763 757.447 676.9 772.569 675.189 777C668.246 794.981 662.365 825.454 690 828.816C716.548 832.045 722.554 812.49 729.695 792C731.186 787.721 739.697 771.591 734.397 768.086C728.012 763.864 724.064 781.608 723.025 785C718.071 801.17 712.516 828.699 689 820.656C667.99 813.47 678.937 787.99 684.604 774C685.658 771.398 693.634 757.219 685.91 757.346z"/>
<path style="fill:#f4be6c; stroke:none;" d="M687 756L688 757L687 756M385 757L386 758L385 757M455.333 757.667L455.667 758.333L455.333 757.667M683 757L684 758L683 757M688 757L689 758L688 757M346.333 758.667L346.667 759.333L346.333 758.667M489 758L490 759L489 758M535 758L536 759L535 758M605.667 758.333L606.333 758.667L605.667 758.333M682 758L683 759L682 758M543 759L544 760L543 759M580 759L581 760L580 759M621 759L621 760L626 760L621 759M463 760L464 761L463 760M542 760L543 761L542 760M554.333 760.667L554.667 761.333L554.333 760.667M640 760L641 761L640 760M657.667 760.333L658.333 760.667L657.667 760.333M681 760L682 761L681 760M689 760L690 761L689 760M301 761L302 762L301 761M496 761L497 762L496 761M498 761L499 762L498 761M664 761L665 762L664 761M671 761L672 762L671 761M532 762L533 763L532 762M546.333 762.667L546.667 763.333L546.333 762.667M669 762L670 763L669 762M680 762L681 763L680 762M384 763L385 764L384 763M488 763L489 764L488 763M579 763L580 764L579 763M630 763L631 764L630 763M638 763L639 764L638 763M689 763L690 764L689 763M376 764L376 769L377 769L376 764M507 764L508 765L507 764M539 764L540 765L539 764M454 765L454 768L455 768L454 765M462.333 765.667L462.667 766.333L462.333 765.667M679 765L680 766L679 765M688 765L689 766L688 765M495 766L496 767L495 766M529 766L530 767L529 766M637 766L638 767L637 766M299 767L299 770L300 770L299 767M347 767L347 771L348 771L347 767M487.333 767.667L487.667 768.333L487.333 767.667M508 767L509 768L508 767M553.333 767.667L553.667 768.333L553.333 767.667M578.333 767.667L578.667 768.333L578.333 767.667M629 767L630 768L629 767M687 767L688 768L687 767M432 768L432 781L433 781L432 768M586 768L587 769L586 768M501 769L502 770L501 769M535 769L536 770L535 769M686 769L687 770L686 769M509 770L510 771L509 770M526 770L527 771L526 770M636.333 770.667L636.667 771.333L636.333 770.667M677 770L678 771L677 770M736.333 770.667L736.667 771.333L736.333 770.667M494 771L495 772L494 771M545.333 771.667L545.667 772.333L545.333 771.667M628 771L629 772L628 771M685 771L686 772L685 771M424 772L424 786L425 786L424 772M486 772L487 773L486 772M502 772L503 773L502 772M585.333 772.667L585.667 773.333L585.333 772.667M308 773L308 779L309 779L308 773M510 773L511 774L510 773M532 773L533 774L532 773M577 773L578 774L577 773M676 773L677 774L676 773M383 774L383 790L384 790L383 774M523 774L524 775L523 774M726 774L727 775L726 774M461.333 775.667L461.667 776.333L461.333 775.667M493 775L494 776L493 775M503 775L504 776L503 775M522 775L523 776L522 775M627 775L628 776L627 775M635 775L636 776L635 775M735 775L736 776L735 775M511 776L512 777L511 776M552.333 776.667L552.667 777.333L552.333 776.667M675 776L676 777L675 776M683 776L684 777L683 776M529 777L530 778L529 777M584 777L585 778L584 777M504 778L505 779L504 778M576.333 778.667L576.667 779.333L576.333 778.667M674 778L675 779L674 778M734 778L735 779L734 778M453 779L453 782L454 782L453 779M484 779L485 780L484 779M492.333 779.667L492.667 780.333L492.333 779.667M626 779L627 780L626 779M634 779L635 780L634 779M347.333 780.667L347.667 781.333L347.333 780.667M355 780L355 785L356 785L355 780M375 780L375 792L376 792L375 780M544.333 780.667L544.667 781.333L544.333 780.667M724 780L725 781L724 780M300 781L300 786L301 786L300 781M505 781L506 782L505 781M513 781L514 782L513 781M517 781L518 782L517 781M526 781L527 782L526 781M673 781L674 782L673 781M733 781L734 782L733 781M516 782L517 783L516 782M583 782L584 783L583 782M345 783L346 784L345 783M483 783L484 784L483 783M575 783L576 784L575 783M723 783L724 784L723 783M343 784L344 785L343 784M491 784L492 785L491 784M506 784L507 785L506 784M625 784L626 785L625 784M633 784L634 785L633 784M732 784L733 785L732 784M308 785L308 789L309 789L308 785M432 785L432 791L433 791L432 785M338 786L339 787L338 786M460 786L460 794L461 794L460 786M522 786L523 787L522 786M671 786L672 787L671 786M722 786L723 787L722 786M334 787L335 788L334 787M521 787L522 788L521 787M551.333 787.667L551.667 788.333L551.333 787.667M582 787L583 788L582 787M330 788L331 789L330 788M490 788L491 789L490 788M574 788L575 789L574 788M624 788L625 789L624 788M632.333 788.667L632.667 789.333L632.333 788.667M327 789L328 790L327 789M508 789L509 790L508 789M670 789L671 790L670 789M730 789L731 790L730 789M322.667 790.333L323.333 790.667L322.667 790.333M481 790L482 791L481 790M518 790L519 791L518 790M543.333 790.667L543.667 791.333L543.333 790.667M721 790L722 791L721 790M318 791L319 792L318 791M452 791L452 803L453 803L452 791M517 791L518 792L517 791M678 791L679 792L678 791M310 792L310 793L314 793L310 792M343.667 792.333L344.333 792.667L343.667 792.333M489 792L490 793L489 792M729 792L730 793L729 792M339 793L340 794L339 793M423 793L424 794L423 793M512.667 793.333L513.333 793.667L512.667 793.333M573 793L574 794L573 793M623 793L624 794L623 793M669 793L670 794L669 793M335 794L336 795L335 794M356 794L356 797L357 797L356 794M480 794L481 795L480 794M581 794L581 809L582 809L581 794M631 794L632 795L631 794M677 794L678 795L677 794M720 794L721 795L720 794M331 795L332 796L331 795M348.333 795.667L348.667 796.333L348.333 795.667M384 795L385 796L384 795M728 795L729 796L728 795M327 796L328 797L327 796M376 796L377 797L376 796M431 796L432 797L431 796M322 797L323 798L322 797M422 797L423 798L422 797M488 797L489 798L488 797M719 797L720 798L719 797M318 798L319 799L318 798M385 798L386 799L385 798M479 798L480 799L479 798M622.333 798.667L622.667 799.333L622.333 798.667M421 799L422 800L421 799M430 799L431 800L430 799M551 799L552 800L551 799M630.333 799.667L630.667 800.333L630.333 799.667M668 799L668 806L669 806L668 799M727 799L728 800L727 799M311 800L312 801L311 800M676 800L676 807L677 807L676 800M718 800L719 801L718 800M309 801L310 802L309 801M420 801L421 802L420 801M461.333 801.667L461.667 802.333L461.333 801.667M572 801L572 807L573 807L572 801M378 802L379 803L378 802M487 802L488 803L487 802M726 802L727 803L726 802M301 803L301 820L302 820L301 803M478 803L479 804L478 803M552 803L552 806L553 806L552 803M717 803L718 804L717 803M357.333 804.667L357.667 805.333L357.333 804.667M379 804L380 805L379 804M416 805L417 806L416 805M426 805L427 806L426 805M380 806L381 807L380 806M716 806L717 807L716 806M621 807L621 813L622 813L621 807M410 808L411 809L410 808M453 808L454 809L453 808M486 808L487 809L486 808M543 808L544 809L543 808M715 808L716 809L715 808M349 809L349 815L350 815L349 809M382 809L383 810L382 809M397 809L398 810L397 809M406 809L407 810L406 809M551 809L552 810L551 809M383 810L384 811L383 810M454 810L455 811L454 810M460 810L461 811L460 810M479 810L480 811L479 810M550 810L551 811L550 810M573 810L574 811L573 810M580 810L581 811L580 810M677 810L678 811L677 810M480 811L481 812L480 811M484 811L485 812L484 811M579 811L580 812L579 811M669 811L670 812L669 811M723 811L724 812L723 811M358.333 812.667L358.667 813.333L358.333 812.667M385 812L386 813L385 812M419 812L420 813L419 812M576 812L577 813L576 812M678 812L679 813L678 812M309 814L309 817L310 817L309 814M388 814L389 815L388 814M415 814L416 815L415 814M670 814L671 815L670 814M390 815L391 816L390 815M413 815L414 816L413 815M622 815L623 816L622 815M711 815L712 816L711 815M393 816L394 817L393 816M671 816L672 817L671 816M710 816L711 817L710 816M396.667 817.333L397.333 817.667L396.667 817.333M405.667 817.333L406.333 817.667L405.667 817.333M625 817L626 818L625 817M709 817L710 818L709 817M708 818L709 819L708 818M719 818L720 819L719 818M358 819L359 820L358 819M685 819L686 820L685 819M687 820L688 821L687 820M704 820L705 821L704 820M692 821L692 822L695 822L692 821M699.667 821.333L700.333 821.667L699.667 821.333M716 821L717 822L716 821M351 822L352 823L351 822M356 822L357 823L356 822M354 823L355 824L354 823M677 823L678 824L677 823M680 825L681 826L680 825M710 825L711 826L710 825z"/>
<path style="fill:#e9cfca; stroke:none;" d="M150 827L150 940L476 940L476 869L182 869L182 827L150 827z"/>
<path style="fill:#f4be6c; stroke:none;" d="M301 827L302 828L301 827M684 827L685 828L684 827M706 827L707 828L706 827z"/>
<path style="fill:#e9cfca; stroke:none;" d="M833 827L833 869L566 869L566 940L864 940L864 827L833 827z"/>
<path style="fill:#f4be6c; stroke:none;" d="M687 828L688 829L687 828M703 828L704 829L703 828M302 829L303 830L302 829M303 830L304 831L303 830M309 830L310 831L309 830M513 847L476 851L476 858L498 857C478.269 884.553 483.355 922.965 517 937.124C528.836 942.105 556.792 943.13 564.972 930.471C567.291 926.884 566 920.114 566 916C544.283 921.024 525.692 919.41 504 919.397C495.732 919.393 493.757 909.014 500.108 904.745C508.648 899.005 509.712 910.202 513.024 914.262C514.883 916.539 519.309 916.717 522 916.911C532.789 917.685 543.313 917.735 554 915.55C557.235 914.889 562.848 914.129 564.972 911.298C567.741 907.607 566 898.422 566 894L566 850C559.654 849.947 553.364 848.414 547 849.129C542.152 849.673 537.881 852.132 533 850.026C527.209 847.528 523.677 835.452 518.961 835.573C512.803 835.73 513.013 842.566 513 847z"/>
<path style="fill:#a4552a; stroke:none;" d="M517 841L516 844L519 844L517 841M504 853L504 854L510 855L510 853L504 853M501.667 903.333L502.333 903.667L501.667 903.333z"/>
<path style="fill:#626366; stroke:none;" d="M503.667 903.333L504.333 903.667L503.667 903.333z"/>
<path style="fill:#a4552a; stroke:none;" d="M505.667 903.333L506.333 903.667L505.667 903.333M499 904L497 907L499 904z"/>
<path style="fill:#626366; stroke:none;" d="M500 904L501 905L500 904z"/>
<path style="fill:#060403; stroke:none;" d="M511 917C510.825 914.43 511.267 911.516 510.556 909.029C505.844 892.555 486.206 919.176 504.002 918.682C506.347 918.617 508.751 917.595 511 917z"/>
<path style="fill:#626366; stroke:none;" d="M507 904L508 905L507 904z"/>
<path style="fill:#a4552a; stroke:none;" d="M508 904L509 905L508 904M509 905L510 906L509 905M510 906L511 907L510 906z"/>
<path style="fill:#626366; stroke:none;" d="M497 907L498 908L497 907M510 907L511 908L510 907z"/>
<path style="fill:#a4552a; stroke:none;" d="M496 908L497 909L496 908M511 908L512 909L511 908z"/>
<path style="fill:#626366; stroke:none;" d="M496.333 909.667L496.667 910.333L496.333 909.667M511 909L508 917L508 918C522.964 919.191 535.847 921.801 551 919.41C556.637 918.52 564.056 918.175 566 912C547.838 918.996 529.804 918.879 511 915L511 909z"/>
<path style="fill:#a4552a; stroke:none;" d="M495 911L496 912L495 911M564 912L565 913L564 912z"/>
<path style="fill:#626366; stroke:none;" d="M496 913L498 916L496 913z"/>
<path style="fill:#a4552a; stroke:none;" d="M561.667 913.333L562.333 913.667L561.667 913.333M511 914L512 915L511 914M558.667 914.333L559.333 914.667L558.667 914.333M496 915L497 916L496 915M513 915L514 916L513 915M554.667 915.333L555.333 915.667L554.667 915.333M565 915L566 916L565 915M497 916L498 917L497 916M517.667 916.333L518.333 916.667L517.667 916.333M548 916L548 917L551 917L548 916M563 916L564 917L563 916z"/>
<path style="fill:#626366; stroke:none;" d="M498 917L499 918L498 917z"/>
<path style="fill:#a4552a; stroke:none;" d="M524 917L524 918L531 918L524 917M537 917L537 918L543 918L537 917M560 917L561 918L560 917M499 918L500 919L499 918z"/>
<path style="fill:#626366; stroke:none;" d="M500 918L501 919L500 918M506 918L507 919L506 918z"/>
<path style="fill:#a4552a; stroke:none;" d="M507 918L508 919L507 918M511.667 918.333L512.333 918.667L511.667 918.333M556.667 918.333L557.333 918.667L556.667 918.333M501 919L501 920L506 920L501 919M515 919L515 920L518 920L515 919M550 919L550 920L553 920L550 919M521 920L521 921L525 921L521 920M542 920L542 921L546 921L542 920M546 939L546 940L566 940L566 931L546 939z"/>
</svg>
